<mxfile host="65bd71144e">
    <diagram id="gRmHA12vW5pVBMB11AYZ" name="第1頁">
        <mxGraphModel dx="1130" dy="1956" grid="1" gridSize="10" guides="1" tooltips="1" connect="1" arrows="1" fold="1" page="1" pageScale="1" pageWidth="827" pageHeight="1169" background="#666666" math="0" shadow="0">
            <root>
                <mxCell id="0"/>
                <mxCell id="1" parent="0"/>
                <mxCell id="2" value="社區大樓住戶" style="rounded=1;whiteSpace=wrap;html=1;" vertex="1" parent="1">
                    <mxGeometry x="40" y="-480" width="130" height="70" as="geometry"/>
                </mxCell>
                <mxCell id="3" value="" style="shape=flexArrow;endArrow=classic;html=1;width=12;endSize=6.99;fillColor=#b0e3e6;strokeColor=#0e8088;" edge="1" parent="1">
                    <mxGeometry width="50" height="50" relative="1" as="geometry">
                        <mxPoint x="104.5" y="-400" as="sourcePoint"/>
                        <mxPoint x="104.5" y="-310" as="targetPoint"/>
                    </mxGeometry>
                </mxCell>
                <mxCell id="4" value="" style="shape=flexArrow;endArrow=classic;html=1;fillColor=#b0e3e6;strokeColor=#0e8088;" edge="1" parent="1">
                    <mxGeometry width="50" height="50" relative="1" as="geometry">
                        <mxPoint x="130" y="-320.5" as="sourcePoint"/>
                        <mxPoint x="320" y="-320.5" as="targetPoint"/>
                    </mxGeometry>
                </mxCell>
                <mxCell id="5" value="大樓警衛" style="rounded=1;whiteSpace=wrap;html=1;" vertex="1" parent="1">
                    <mxGeometry x="340" y="-350" width="120" height="60" as="geometry"/>
                </mxCell>
                <mxCell id="6" value="" style="shape=flexArrow;endArrow=classic;html=1;fillColor=#b0e3e6;strokeColor=#0e8088;" edge="1" parent="1">
                    <mxGeometry width="50" height="50" relative="1" as="geometry">
                        <mxPoint x="399.5" y="-410" as="sourcePoint"/>
                        <mxPoint x="401" y="-360" as="targetPoint"/>
                    </mxGeometry>
                </mxCell>
                <mxCell id="7" value="社區大樓管理公司" style="rounded=1;whiteSpace=wrap;html=1;" vertex="1" parent="1">
                    <mxGeometry x="340" y="-480" width="120" height="60" as="geometry"/>
                </mxCell>
                <mxCell id="9" value="主任委員及各類主委" style="rounded=1;whiteSpace=wrap;html=1;" vertex="1" parent="1">
                    <mxGeometry x="340" y="-220" width="120" height="60" as="geometry"/>
                </mxCell>
                <mxCell id="10" value="" style="shape=flexArrow;endArrow=classic;html=1;fillColor=#b0e3e6;strokeColor=#0e8088;" edge="1" parent="1">
                    <mxGeometry width="50" height="50" relative="1" as="geometry">
                        <mxPoint x="399.5" y="-280" as="sourcePoint"/>
                        <mxPoint x="401" y="-230" as="targetPoint"/>
                    </mxGeometry>
                </mxCell>
                <mxCell id="11" value="貨運/郵政公司" style="rounded=1;whiteSpace=wrap;html=1;" vertex="1" parent="1">
                    <mxGeometry x="340" y="-90" width="120" height="60" as="geometry"/>
                </mxCell>
                <mxCell id="12" value="" style="shape=flexArrow;endArrow=classic;html=1;fillColor=#b0e3e6;strokeColor=#0e8088;" edge="1" parent="1">
                    <mxGeometry width="50" height="50" relative="1" as="geometry">
                        <mxPoint x="399.5" y="-150" as="sourcePoint"/>
                        <mxPoint x="401" y="-100" as="targetPoint"/>
                    </mxGeometry>
                </mxCell>
            </root>
        </mxGraphModel>
    </diagram>
</mxfile>